# xmcd
#
# Track frame offsets:
#	150
#	15960
#	32914
#	48203
#	64791
#	82941
#	95156
#	112255
#	128236
#	148590
#	168017
#	188224
#	200800
#
# Disc length: 2898 seconds
#
# Revision: 1
# Processed by: cddbd v1.4PL0 Copyright (c) Steve Scherf et al.
# Submitted via: audiograbber 1.81.02
#
DISCID=b10b500d
DTITLE=Cash Money and Marvelous - Where's The Party At ?
DYEAR=1988
DGENRE=Hip-Hop
TTITLE0=Find An Ugly Woman 
TTITLE1=Play It Kool 
TTITLE2=Is It Real 
TTITLE3=Time Is Up
TTITLE4=A Real Mutha For Ya
TTITLE5=Marvelous' Drawers
TTITLE6=Ugly People Be Quiet (Remix)
TTITLE7=Ugly People Be Quiet
TTITLE8=The Mighty Hard Rocker
TTITLE9=Who's In The Place
TTITLE10=Where's The Party At?
TTITLE11=All About Partyin'
TTITLE12=The Music Maker
EXTD=
EXTT0=
EXTT1=
EXTT2=
EXTT3=
EXTT4=
EXTT5=
EXTT6=
EXTT7=
EXTT8=
EXTT9=
EXTT10=
EXTT11=
EXTT12=
PLAYORDER=
